<svg preserveAspectRatio="none" width="100%" height="100%" overflow="visible" style="display: block;" viewBox="0 0 320 80" fill="none" xmlns="http://www.w3.org/2000/svg">
<g id="Vector">
<path d="M86.3701 31.861V54.0164H75.6971V15.6935H85.869V22.4549H86.32C87.1718 20.226 88.5999 18.4629 90.6042 17.1655C92.6085 15.8515 95.0388 15.1945 97.8949 15.1945C100.567 15.1945 102.897 15.7766 104.885 16.9409C106.873 18.1053 108.418 19.7686 109.52 21.9309C110.622 24.0766 111.174 26.6381 111.174 29.6155V54.0164H100.501V31.5117C100.517 29.1664 99.916 27.3367 98.6967 26.0227C97.4774 24.692 95.7987 24.0267 93.6608 24.0267C92.2244 24.0267 90.955 24.3344 89.8526 24.9498C88.7669 25.5653 87.9151 26.4635 87.2971 27.6444C86.6958 28.8088 86.3868 30.2143 86.3701 31.861Z" fill="var(--fill-0, #F8F8F8)"/>
<path d="M119.585 54.0164V15.6935H130.258V54.0164H119.585ZM124.947 10.7534C123.36 10.7534 121.999 10.2294 120.863 9.18154C119.744 8.11702 119.185 6.84458 119.185 5.36422C119.185 3.90049 119.744 2.64468 120.863 1.59679C121.999 0.532264 123.36 0 124.947 0C126.534 0 127.887 0.532264 129.006 1.59679C130.142 2.64468 130.709 3.90049 130.709 5.36422C130.709 6.84458 130.142 8.11702 129.006 9.18154C127.887 10.2294 126.534 10.7534 124.947 10.7534Z" fill="var(--fill-0, #F8F8F8)"/>
<path d="M156.196 54.7649C152.254 54.7649 148.863 53.9333 146.024 52.2699C143.201 50.59 141.03 48.2613 139.51 45.284C138.006 42.3066 137.255 38.8802 137.255 35.0046C137.255 31.0792 138.015 27.6361 139.535 24.6754C141.071 21.6981 143.251 19.3777 146.074 17.7144C148.897 16.0344 152.254 15.1945 156.146 15.1945C159.503 15.1945 162.442 15.8016 164.965 17.0158C167.487 18.23 169.483 19.9349 170.952 22.1305C172.422 24.3261 173.232 26.9043 173.383 29.865H163.311C163.027 27.9521 162.275 26.4136 161.056 25.2492C159.854 24.0683 158.275 23.4778 156.321 23.4778C154.667 23.4778 153.223 23.9269 151.987 24.8251C150.767 25.7067 149.815 26.9957 149.13 28.6923C148.446 30.3889 148.103 32.4431 148.103 34.8549C148.103 37.3 148.437 39.3792 149.105 41.0924C149.79 42.8056 150.751 44.1113 151.987 45.0095C153.223 45.9077 154.667 46.3568 156.321 46.3568C157.54 46.3568 158.634 46.1073 159.603 45.6083C160.588 45.1093 161.399 44.3858 162.033 43.4377C162.685 42.473 163.111 41.3169 163.311 39.9697H173.383C173.216 42.8971 172.414 45.4753 170.978 47.7041C169.558 49.9163 167.595 51.6462 165.09 52.8937C162.584 54.1412 159.62 54.7649 156.196 54.7649Z" fill="var(--fill-0, #F8F8F8)"/>
<path d="M190.889 31.861V54.0164H180.216V2.91913H190.589V22.4549H191.04C191.908 20.1927 193.311 18.4213 195.249 17.1405C197.186 15.8432 199.616 15.1945 202.539 15.1945C205.212 15.1945 207.542 15.7766 209.529 16.9409C211.534 18.0886 213.087 19.7436 214.19 21.906C215.309 24.0517 215.86 26.6215 215.843 29.6155V54.0164H205.17V31.5117C205.187 29.1497 204.585 27.3118 203.366 25.9977C202.164 24.6837 200.477 24.0267 198.305 24.0267C196.852 24.0267 195.566 24.3344 194.447 24.9498C193.345 25.5653 192.476 26.4635 191.841 27.6444C191.223 28.8088 190.906 30.2143 190.889 31.861Z" fill="var(--fill-0, #F8F8F8)"/>
<path d="M241.63 54.7649C237.738 54.7649 234.373 53.9416 231.533 52.2949C228.71 50.6316 226.531 48.3195 224.994 45.3588C223.457 42.3815 222.689 38.9301 222.689 35.0046C222.689 31.0459 223.457 27.5862 224.994 24.6255C226.531 21.6482 228.71 19.3361 231.533 17.6894C234.373 16.0261 237.738 15.1945 241.63 15.1945C245.522 15.1945 248.879 16.0261 251.702 17.6894C254.541 19.3361 256.729 21.6482 258.266 24.6255C259.802 27.5862 260.571 31.0459 260.571 35.0046C260.571 38.9301 259.802 42.3815 258.266 45.3588C256.729 48.3195 254.541 50.6316 251.702 52.2949C248.879 53.9416 245.522 54.7649 241.63 54.7649ZM241.68 46.5315C243.451 46.5315 244.929 46.0325 246.115 45.0345C247.3 44.0198 248.194 42.6393 248.795 40.8928C249.413 39.1463 249.722 37.1586 249.722 34.9298C249.722 32.7009 249.413 30.7133 248.795 28.9668C248.194 27.2203 247.3 25.8397 246.115 24.8251C244.929 23.8105 243.451 23.3032 241.68 23.3032C239.893 23.3032 238.39 23.8105 237.17 24.8251C235.968 25.8397 235.057 27.2203 234.439 28.9668C233.838 30.7133 233.537 32.7009 233.537 34.9298C233.537 37.1586 233.838 39.1463 234.439 40.8928C235.057 42.6393 235.968 44.0198 237.17 45.0345C238.39 46.0325 239.893 46.5315 241.68 46.5315Z" fill="var(--fill-0, #F8F8F8)"/>
<path d="M278.184 2.91913V54.0164H267.511V2.91913H278.184Z" fill="var(--fill-0, #F8F8F8)"/>
<path d="M318.753 26.6215L308.981 27.2203C308.814 26.3886 308.455 25.6401 307.904 24.9748C307.353 24.2928 306.626 23.7523 305.724 23.3531C304.839 22.9372 303.779 22.7293 302.543 22.7293C300.889 22.7293 299.494 23.0786 298.359 23.7772C297.223 24.4592 296.655 25.374 296.655 26.5217C296.655 27.4365 297.022 28.21 297.757 28.842C298.492 29.4741 299.753 29.9814 301.54 30.364L308.505 31.7612C312.247 32.5263 315.036 33.7571 316.873 35.4537C318.711 37.1503 319.629 39.3792 319.629 42.1403C319.629 44.6519 318.886 46.8558 317.4 48.752C315.93 50.6482 313.909 52.1285 311.337 53.1931C308.781 54.241 305.833 54.7649 302.492 54.7649C297.398 54.7649 293.339 53.7087 290.316 51.5963C287.31 49.4672 285.548 46.573 285.03 42.9137L295.527 42.3648C295.845 43.9117 296.613 45.0927 297.832 45.9077C299.052 46.7061 300.613 47.1053 302.517 47.1053C304.388 47.1053 305.891 46.7477 307.027 46.0325C308.18 45.3006 308.764 44.3608 308.781 43.2131C308.764 42.2484 308.355 41.4583 307.553 40.8429C306.752 40.2108 305.516 39.7285 303.845 39.3958L297.181 38.0735C293.423 37.325 290.625 36.0276 288.788 34.1813C286.967 32.335 286.057 29.9814 286.057 27.1205C286.057 24.6588 286.725 22.538 288.061 20.7583C289.414 18.9785 291.31 17.6063 293.749 16.6415C296.204 15.6768 299.077 15.1945 302.367 15.1945C307.228 15.1945 311.053 16.2174 313.842 18.2633C316.648 20.3092 318.285 23.0952 318.753 26.6215Z" fill="var(--fill-0, #F8F8F8)"/>
<path d="M75.8651 79.4343V66.1623H80.1666C81.1123 66.1623 81.9019 66.3437 82.5353 66.7066C83.1731 67.0652 83.6524 67.5534 83.9735 68.1712C84.2989 68.789 84.4616 69.4846 84.4616 70.2579C84.4616 71.0313 84.301 71.729 83.98 72.3511C83.659 72.9689 83.1817 73.4593 82.5483 73.8222C81.9149 74.1808 81.1275 74.3601 80.1861 74.3601H76.8022V73.2713H80.1536C80.852 73.2713 81.4312 73.1417 81.8911 72.8825C82.3509 72.619 82.6937 72.2604 82.9193 71.8068C83.1492 71.3531 83.2642 70.8368 83.2642 70.2579C83.2642 69.679 83.1492 69.1627 82.9193 68.7091C82.6937 68.2554 82.3488 67.899 81.8846 67.6398C81.4247 67.3806 80.8412 67.251 80.134 67.251H77.082V79.4343H75.8651Z" fill="var(--fill-0, #F8F8F8)"/>
<path d="M105.277 79.4343V66.1623H106.494V72.2474H114.056V66.1623H115.273V79.4343H114.056V73.3361H106.494V79.4343H105.277Z" fill="var(--fill-0, #F8F8F8)"/>
<path d="M147.691 72.7983C147.691 74.1808 147.444 75.384 146.949 76.4079C146.455 77.4275 145.774 78.2181 144.906 78.7797C144.043 79.3371 143.049 79.6157 141.925 79.6157C140.802 79.6157 139.806 79.3371 138.939 78.7797C138.075 78.2181 137.396 77.4275 136.902 76.4079C136.411 75.384 136.166 74.1808 136.166 72.7983C136.166 71.4158 136.411 70.2147 136.902 69.1951C137.396 68.1712 138.077 67.3806 138.945 66.8233C139.813 66.2616 140.806 65.9808 141.925 65.9808C143.049 65.9808 144.043 66.2616 144.906 66.8233C145.774 67.3806 146.455 68.1712 146.949 69.1951C147.444 70.2147 147.691 71.4158 147.691 72.7983ZM146.507 72.7983C146.507 71.6102 146.307 70.5927 145.908 69.746C145.509 68.8949 144.965 68.2446 144.275 67.7953C143.585 67.346 142.802 67.1214 141.925 67.1214C141.053 67.1214 140.273 67.346 139.583 67.7953C138.893 68.2446 138.346 68.8927 137.943 69.7395C137.544 70.5863 137.344 71.6059 137.344 72.7983C137.344 73.9864 137.544 75.0038 137.943 75.8506C138.342 76.6974 138.886 77.3476 139.576 77.8012C140.266 78.2505 141.049 78.4752 141.925 78.4752C142.802 78.4752 143.585 78.2505 144.275 77.8012C144.969 77.3519 145.515 76.7038 145.915 75.8571C146.314 75.006 146.511 73.9864 146.507 72.7983Z" fill="var(--fill-0, #F8F8F8)"/>
<path d="M167.231 67.251V66.1623H176.895V67.251H172.672V79.4343H171.455V67.251H167.231Z" fill="var(--fill-0, #F8F8F8)"/>
<path d="M207.965 72.7983C207.965 74.1808 207.717 75.384 207.223 76.4079C206.728 77.4275 206.047 78.2181 205.18 78.7797C204.316 79.3371 203.323 79.6157 202.199 79.6157C201.075 79.6157 200.08 79.3371 199.212 78.7797C198.349 78.2181 197.67 77.4275 197.175 76.4079C196.685 75.384 196.44 74.1808 196.44 72.7983C196.44 71.4158 196.685 70.2147 197.175 69.1951C197.67 68.1712 198.351 67.3806 199.219 66.8233C200.086 66.2616 201.08 65.9808 202.199 65.9808C203.323 65.9808 204.316 66.2616 205.18 66.8233C206.047 67.3806 206.728 68.1712 207.223 69.1951C207.717 70.2147 207.965 71.4158 207.965 72.7983ZM206.78 72.7983C206.78 71.6102 206.581 70.5927 206.182 69.746C205.783 68.8949 205.238 68.2446 204.548 67.7953C203.858 67.346 203.075 67.1214 202.199 67.1214C201.327 67.1214 200.546 67.346 199.856 67.7953C199.167 68.2446 198.62 68.8927 198.216 69.7395C197.817 70.5863 197.618 71.6059 197.618 72.7983C197.618 73.9864 197.817 75.0038 198.216 75.8506C198.616 76.6974 199.16 77.3476 199.85 77.8012C200.54 78.2505 201.323 78.4752 202.199 78.4752C203.075 78.4752 203.858 78.2505 204.548 77.8012C205.242 77.3519 205.789 76.7038 206.188 75.8571C206.587 75.006 206.785 73.9864 206.78 72.7983Z" fill="var(--fill-0, #F8F8F8)"/>
<path d="M251.979 79.4343V66.1623H253.196V78.3456H259.547V79.4343H251.979Z" fill="var(--fill-0, #F8F8F8)"/>
<path d="M281.106 79.4343H279.831L284.679 66.1623H285.981L290.829 79.4343H289.553L285.375 67.737H285.284L281.106 79.4343ZM282.024 74.3471H288.636V75.4358H282.024V74.3471Z" fill="var(--fill-0, #F8F8F8)"/>
<path d="M311.072 79.4343V66.1623H315.568C316.436 66.1623 317.158 66.3135 317.735 66.6159C318.317 66.9183 318.753 67.3309 319.043 67.8537C319.334 68.3764 319.479 68.9705 319.479 69.6358C319.479 70.1888 319.386 70.6619 319.2 71.055C319.013 71.4482 318.759 71.7657 318.438 72.0076C318.117 72.2496 317.759 72.4246 317.364 72.5326V72.6363C317.794 72.6665 318.21 72.8177 318.614 73.0899C319.017 73.3577 319.349 73.7336 319.61 74.2175C319.87 74.7014 320 75.2803 320 75.9543C320 76.6239 319.85 77.2223 319.551 77.7494C319.252 78.2721 318.792 78.6847 318.171 78.9871C317.555 79.2852 316.77 79.4343 315.816 79.4343H311.072ZM312.289 78.3456H315.816C316.844 78.3456 317.603 78.1187 318.093 77.6651C318.588 77.2115 318.835 76.6412 318.835 75.9543C318.835 75.4488 318.711 74.9908 318.464 74.5804C318.221 74.1656 317.876 73.8373 317.43 73.5954C316.987 73.3534 316.466 73.2325 315.868 73.2325H312.289V78.3456ZM312.289 72.1567H315.679C316.204 72.1567 316.664 72.0487 317.059 71.8327C317.453 71.6167 317.761 71.3186 317.983 70.9384C318.204 70.5582 318.315 70.124 318.315 69.6358C318.315 68.9316 318.085 68.3591 317.625 67.9185C317.165 67.4735 316.479 67.251 315.568 67.251H312.289V72.1567Z" fill="var(--fill-0, #F8F8F8)"/>
<path d="M10.8669 16.9618H35.8594V6.14009H0V51.5923H10.8669V16.9618Z" fill="var(--fill-0, #F8F8F8)"/>
<path d="M25.2644 31.3025H49.9882V20.207H14.1257V65.6593H25.2644V31.3025Z" fill="var(--fill-0, #F8F8F8)"/>
<path d="M28.5232 34.5477H49.9882V65.6593H28.5232V34.5477Z" fill="#F8F8F8"/>
<path d="M28.5232 34.5477H61.1269V76.7547H28.5232V34.5477Z" fill="#F8F8F8"/>
<path d="M28.5232 34.5477H64.3857V80H28.5232V34.5477Z" fill="var(--fill-0, #F8F8F8)"/>
</g>
</svg>
