<svg width="20" height="20" viewBox="0 0 20 20" fill="none" xmlns="http://www.w3.org/2000/svg">
<path d="M18.2222 10C18.2222 5.45899 14.541 1.77778 10 1.77778C5.45899 1.77778 1.77778 5.45899 1.77778 10C1.77778 14.541 5.45899 18.2222 10 18.2222V20C4.47715 20 0 15.5228 0 10C0 4.47715 4.47715 0 10 0C15.5228 0 20 4.47715 20 10C20 15.5228 15.5228 20 10 20V18.2222C14.541 18.2222 18.2222 14.541 18.2222 10Z" fill="#010101"/>
<path d="M8.94602 15.3333V7.76567H11.0449V15.3333H8.94602ZM10.0004 6.79015C9.68833 6.79015 9.42064 6.68668 9.19729 6.47975C8.97722 6.26954 8.86719 6.01827 8.86719 5.72594C8.86719 5.4369 8.97722 5.18891 9.19729 4.98199C9.42064 4.77177 9.68833 4.66667 10.0004 4.66667C10.3124 4.66667 10.5785 4.77177 10.7985 4.98199C11.0219 5.18891 11.1335 5.4369 11.1335 5.72594C11.1335 6.01827 11.0219 6.26954 10.7985 6.47975C10.5785 6.68668 10.3124 6.79015 10.0004 6.79015Z" fill="#010101"/>
</svg>
